Coordinates
version=1
nRows=7
nColumns=40
inDegrees=yes

Units are S.I. units (second, meters, Newtons, ...)
Angles are in degrees.

endheader
time	pelvis_tilt	pelvis_list	pelvis_rotation	pelvis_tx	pelvis_ty	pelvis_tz	hip_flexion_r	hip_adduction_r	hip_rotation_r	knee_angle_r	knee_angle_r_beta	ankle_angle_r	subtalar_angle_r	mtp_angle_r	hip_flexion_l	hip_adduction_l	hip_rotation_l	knee_angle_l	knee_angle_l_beta	ankle_angle_l	subtalar_angle_l	mtp_angle_l	lumbar_extension	lumbar_bending	lumbar_rotation	arm_flex_r	arm_add_r	arm_rot_r	elbow_flex_r	pro_sup_r	wrist_flex_r	wrist_dev_r	arm_flex_l	arm_add_l	arm_rot_l	elbow_flex_l	pro_sup_l	wrist_flex_l	wrist_dev_l
     22.31000000	     -5.69677097	     -2.48136006	     -6.69823286	      1.05162725	      0.91959342	      0.43839029	     30.53590361	     -2.69283758	    -13.84035437	     12.40567375	     12.40567375	      0.81045485	      8.23591828	     10.95035789	      0.86489140	     -3.48543970	    -12.57022069	     12.54498384	     12.54498384	     17.53741434	     -4.40493950	     -7.44882844	    -12.08306086	      2.47626304	      4.50286912	    -14.29983798	    -17.55347308	    -12.37689674	     22.98800978	     47.63863830	      0.00000000	      0.00000000	     33.40208763	    -22.00018788	      3.39458559	     77.69360463	     47.24865567	      0.00000000	      0.00000000
     22.32157143	     -5.66291917	     -2.40558551	     -6.64718526	      1.05354629	      0.91776313	      0.44079970	     30.25284320	     -2.50996151	    -14.20737302	     12.30137212	     12.30137212	      0.89225724	      8.70048692	     11.08259493	      0.00966010	     -3.48065493	    -12.65109964	     12.39601631	     12.39601631	     18.33391050	     -3.94093073	     -6.84832270	    -11.97995689	      2.42780783	      3.98119047	    -15.64519384	    -17.56258308	    -13.31405969	     24.32647112	     47.59285731	      0.00000000	      0.00000000	     32.48278701	    -22.62884522	      1.98554673	     81.93998477	     47.45370690	      0.00000000	      0.00000000
     22.33314286	     -5.61389361	     -2.41835735	     -6.57417670	      1.05549038	      0.91602144	      0.44342601	     29.98795384	     -2.26394981	    -14.26290151	     12.67253498	     12.67253498	      0.78645777	      8.54193877	     10.54595939	     -0.84784247	     -3.58326239	    -12.60491285	     12.26532702	     12.26532702	     18.90338557	     -3.75973993	     -6.65455067	    -11.82382380	      2.44212033	      4.39148308	    -16.99209780	    -17.41955961	    -13.40934276	     24.07062916	     47.58371214	      0.00000000	      0.00000000	     32.78149244	    -22.17890242	      1.60166718	     83.94932899	     47.52795733	      0.00000000	      0.00000000
     22.34471429	     -5.56937862	     -2.45192172	     -6.44113326	      1.05754735	      0.91426558	      0.44613656	     29.84762809	     -2.07965662	    -14.09200327	     13.61634525	     13.61634525	      0.71961169	      7.98525671	      9.33046245	     -1.58102811	     -3.75652456	    -12.53720040	     12.37586837	     12.37586837	     19.55528864	     -3.60015979	     -6.30152421	    -11.64233352	      2.51940358	      4.58340043	    -18.20319577	    -17.25146622	    -13.56961553	     24.24263083	     47.56149918	      0.00000000	      0.00000000	     32.75787582	    -21.88453635	      1.11807118	     86.23473743	     47.61170374	      0.00000000	      0.00000000
     22.35628571	     -5.58929641	     -2.50999231	     -6.19761990	      1.05961711	      0.91252146	      0.44898842	     29.58358452	     -1.83648514	    -13.74790096	     14.30508328	     14.30508328	     -0.84538579	      6.78694177	      4.19019669	     -2.03620717	     -4.09246389	    -12.64536202	     12.95216733	     12.95216733	     20.97029369	     -2.70851312	     -4.45662973	    -11.48768769	      2.62508666	      3.78169899	    -19.30630327	    -17.17224885	    -13.95374155	     26.21877465	     47.41774848	      0.00000000	      0.00000000	     31.41474760	    -22.31119479	     -0.78033643	     90.04424278	     47.84577007	      0.00000000	      0.00000000
     22.36785714	     -5.44516287	     -2.64671996	     -5.97512841	      1.06159642	      0.91115363	      0.45190992	     29.47236385	     -1.66462666	    -13.41959516	     15.88233577	     15.88233577	     -0.60625361	      5.82802292	      3.24060030	     -2.60464412	     -4.46427189	    -12.39548926	     13.55734289	     13.55734289	     21.44640099	     -2.89935004	     -4.41449434	    -11.45062506	      2.78775919	      4.07028751	    -20.10241362	    -16.97043209	    -13.90046286	     26.00862613	     47.40418377	      0.00000000	      0.00000000	     31.52018058	    -21.81677504	     -0.94968519	     91.34513293	     47.88852859	      0.00000000	      0.00000000
     22.37942857	     -5.43333594	     -2.74653334	     -5.65985501	      1.06350401	      0.90978547	      0.45494942	     29.38421779	     -1.42749804	    -12.66973438	     17.15062240	     17.15062240	     -1.45608676	      3.82083830	     -0.66159269	     -2.74555848	     -4.94507050	    -12.28122288	     14.72329242	     14.72329242	     22.45289014	     -2.57784064	     -3.27730048	    -11.34806312	      2.90891410	      3.59859525	    -20.80400897	    -16.75611124	    -13.80666878	     27.19246087	     47.26301540	      0.00000000	      0.00000000	     30.33817191	    -21.72039461	     -2.40035653	     94.51510658	     48.07907629	      0.00000000	      0.00000000
